<?xml version="1.0" encoding="UTF-8" standalone="no"?>
<!DOCTYPE svg PUBLIC "-//W3C//DTD SVG 1.1//EN"
 "http://www.w3.org/Graphics/SVG/1.1/DTD/svg11.dtd">
<!-- Generated by graphviz version 5.0.0 (20220707.1540)
 -->
<!-- Title: dependencies Pages: 1 -->
<svg width="1276pt" height="247pt"
 viewBox="0.00 0.00 1276.00 246.80" xmlns="http://www.w3.org/2000/svg" xmlns:xlink="http://www.w3.org/1999/xlink">
<g id="graph0" class="graph" transform="scale(1 1) rotate(0) translate(4 242.8)">
<title>dependencies</title>
<polygon fill="white" stroke="transparent" points="-4,4 -4,-242.8 1272,-242.8 1272,4 -4,4"/>
<text text-anchor="middle" x="634" y="-8.2" font-family="sans-serif" font-size="14.00">dependencies</text>
<g id="clust1" class="cluster">
<title>cluster_GTTableModule</title>
<polygon fill="none" stroke="black" stroke-dasharray="1,5" points="8,-32.8 8,-230.8 1260,-230.8 1260,-32.8 8,-32.8"/>
</g>
<g id="clust2" class="cluster">
<title>cluster_GTTableModule_declarations</title>
<polygon fill="none" stroke="black" points="158,-40.8 158,-92.8 1252,-92.8 1252,-40.8 158,-40.8"/>
</g>
<g id="clust10" class="cluster">
<title>cluster_GTTableModule_exports</title>
<polygon fill="none" stroke="black" points="77,-170.8 77,-222.8 1191,-222.8 1191,-170.8 77,-170.8"/>
</g>
<g id="clust9" class="cluster">
<title>cluster_GTTableModule_imports</title>
<polygon fill="none" stroke="black" points="16,-40.8 16,-92.8 150,-92.8 150,-40.8 16,-40.8"/>
</g>
<!-- GTBotoneraComponent -->
<g id="node1" class="node">
<title>GTBotoneraComponent</title>
<polygon fill="#ffffb3" stroke="black" points="1243.81,-84.8 1092.19,-84.8 1092.19,-48.8 1243.81,-48.8 1243.81,-84.8"/>
<text text-anchor="middle" x="1168" y="-62.6" font-family="Times,serif" font-size="14.00">GTBotoneraComponent</text>
</g>
<!-- GTTableModule -->
<g id="node7" class="node">
<title>GTTableModule</title>
<polygon fill="#8dd3c7" stroke="black" points="720.08,-149.8 717.08,-153.8 696.08,-153.8 693.08,-149.8 609.92,-149.8 609.92,-113.8 720.08,-113.8 720.08,-149.8"/>
<text text-anchor="middle" x="665" y="-127.6" font-family="Times,serif" font-size="14.00">GTTableModule</text>
</g>
<!-- GTBotoneraComponent&#45;&gt;GTTableModule -->
<g id="edge1" class="edge">
<title>GTBotoneraComponent&#45;&gt;GTTableModule</title>
<path fill="none" stroke="black" d="M1137.88,-84.91C1137.88,-104.14 1137.88,-131.8 1137.88,-131.8 1137.88,-131.8 730.17,-131.8 730.17,-131.8"/>
<polygon fill="black" stroke="black" points="730.17,-128.3 720.17,-131.8 730.17,-135.3 730.17,-128.3"/>
</g>
<!-- GTChipsComponent -->
<g id="node2" class="node">
<title>GTChipsComponent</title>
<polygon fill="#ffffb3" stroke="black" points="1074.17,-84.8 941.83,-84.8 941.83,-48.8 1074.17,-48.8 1074.17,-84.8"/>
<text text-anchor="middle" x="1008" y="-62.6" font-family="Times,serif" font-size="14.00">GTChipsComponent</text>
</g>
<!-- GTChipsComponent&#45;&gt;GTTableModule -->
<g id="edge2" class="edge">
<title>GTChipsComponent&#45;&gt;GTTableModule</title>
<path fill="none" stroke="black" d="M976.38,-84.82C976.38,-102.17 976.38,-125.8 976.38,-125.8 976.38,-125.8 730.31,-125.8 730.31,-125.8"/>
<polygon fill="black" stroke="black" points="730.31,-122.3 720.31,-125.8 730.31,-129.3 730.31,-122.3"/>
</g>
<!-- GTConversionDirective -->
<g id="node3" class="node">
<title>GTConversionDirective</title>
<polygon fill="#ffffb3" stroke="black" points="923.8,-84.8 772.2,-84.8 772.2,-48.8 923.8,-48.8 923.8,-84.8"/>
<text text-anchor="middle" x="848" y="-62.6" font-family="Times,serif" font-size="14.00">GTConversionDirective</text>
</g>
<!-- GTConversionDirective&#45;&gt;GTTableModule -->
<g id="edge3" class="edge">
<title>GTConversionDirective&#45;&gt;GTTableModule</title>
<path fill="none" stroke="black" d="M814.88,-85.04C814.88,-100.37 814.88,-119.8 814.88,-119.8 814.88,-119.8 730.38,-119.8 730.38,-119.8"/>
<polygon fill="black" stroke="black" points="730.38,-116.3 720.38,-119.8 730.38,-123.3 730.38,-116.3"/>
</g>
<!-- GTGenericEditorComponent -->
<g id="node4" class="node">
<title>GTGenericEditorComponent</title>
<polygon fill="#ffffb3" stroke="black" points="754.79,-84.8 575.21,-84.8 575.21,-48.8 754.79,-48.8 754.79,-84.8"/>
<text text-anchor="middle" x="665" y="-62.6" font-family="Times,serif" font-size="14.00">GTGenericEditorComponent</text>
</g>
<!-- GTGenericEditorComponent&#45;&gt;GTTableModule -->
<g id="edge4" class="edge">
<title>GTGenericEditorComponent&#45;&gt;GTTableModule</title>
<path fill="none" stroke="black" d="M665,-84.91C665,-84.91 665,-103.79 665,-103.79"/>
<polygon fill="black" stroke="black" points="661.5,-103.79 665,-113.79 668.5,-103.79 661.5,-103.79"/>
</g>
<!-- GTMatErrorMessagesDirective -->
<g id="node5" class="node">
<title>GTMatErrorMessagesDirective</title>
<polygon fill="#ffffb3" stroke="black" points="557.77,-84.8 364.23,-84.8 364.23,-48.8 557.77,-48.8 557.77,-84.8"/>
<text text-anchor="middle" x="461" y="-62.6" font-family="Times,serif" font-size="14.00">GTMatErrorMessagesDirective</text>
</g>
<!-- GTMatErrorMessagesDirective&#45;&gt;GTTableModule -->
<g id="edge5" class="edge">
<title>GTMatErrorMessagesDirective&#45;&gt;GTTableModule</title>
<path fill="none" stroke="black" d="M529.62,-85.04C529.62,-100.37 529.62,-119.8 529.62,-119.8 529.62,-119.8 599.94,-119.8 599.94,-119.8"/>
<polygon fill="black" stroke="black" points="599.94,-123.3 609.94,-119.8 599.94,-116.3 599.94,-123.3"/>
</g>
<!-- GTSelectMaestroComponent -->
<g id="node6" class="node">
<title>GTSelectMaestroComponent</title>
<polygon fill="#ffffb3" stroke="black" points="346.08,-84.8 165.92,-84.8 165.92,-48.8 346.08,-48.8 346.08,-84.8"/>
<text text-anchor="middle" x="256" y="-62.6" font-family="Times,serif" font-size="14.00">GTSelectMaestroComponent</text>
</g>
<!-- GTSelectMaestroComponent&#45;&gt;GTTableModule -->
<g id="edge6" class="edge">
<title>GTSelectMaestroComponent&#45;&gt;GTTableModule</title>
<path fill="none" stroke="black" d="M316.33,-84.82C316.33,-102.17 316.33,-125.8 316.33,-125.8 316.33,-125.8 599.75,-125.8 599.75,-125.8"/>
<polygon fill="black" stroke="black" points="599.75,-129.3 609.75,-125.8 599.75,-122.3 599.75,-129.3"/>
</g>
<!-- GTBotoneraComponent  -->
<g id="node9" class="node">
<title>GTBotoneraComponent </title>
<polygon fill="#fb8072" stroke="black" points="1183.31,-214.8 1028.69,-214.8 1028.69,-178.8 1183.31,-178.8 1183.31,-214.8"/>
<text text-anchor="middle" x="1106" y="-192.6" font-family="Times,serif" font-size="14.00">GTBotoneraComponent </text>
</g>
<!-- GTTableModule&#45;&gt;GTBotoneraComponent  -->
<g id="edge8" class="edge">
<title>GTTableModule&#45;&gt;GTBotoneraComponent </title>
<path fill="none" stroke="black" stroke-dasharray="5,2" d="M720.37,-137.8C827.23,-137.8 1051.46,-137.8 1051.46,-137.8 1051.46,-137.8 1051.46,-168.78 1051.46,-168.78"/>
<polygon fill="black" stroke="black" points="1047.96,-168.78 1051.46,-178.78 1054.96,-168.78 1047.96,-168.78"/>
</g>
<!-- GTChipsComponent  -->
<g id="node10" class="node">
<title>GTChipsComponent </title>
<polygon fill="#fb8072" stroke="black" points="1011.17,-214.8 874.83,-214.8 874.83,-178.8 1011.17,-178.8 1011.17,-214.8"/>
<text text-anchor="middle" x="943" y="-192.6" font-family="Times,serif" font-size="14.00">GTChipsComponent </text>
</g>
<!-- GTTableModule&#45;&gt;GTChipsComponent  -->
<g id="edge9" class="edge">
<title>GTTableModule&#45;&gt;GTChipsComponent </title>
<path fill="none" stroke="black" stroke-dasharray="5,2" d="M720.22,-143.8C789.49,-143.8 899.28,-143.8 899.28,-143.8 899.28,-143.8 899.28,-168.56 899.28,-168.56"/>
<polygon fill="black" stroke="black" points="895.78,-168.56 899.28,-178.56 902.78,-168.56 895.78,-168.56"/>
</g>
<!-- GTConversionDirective  -->
<g id="node11" class="node">
<title>GTConversionDirective </title>
<polygon fill="#fb8072" stroke="black" points="857.3,-214.8 702.7,-214.8 702.7,-178.8 857.3,-178.8 857.3,-214.8"/>
<text text-anchor="middle" x="780" y="-192.6" font-family="Times,serif" font-size="14.00">GTConversionDirective </text>
</g>
<!-- GTTableModule&#45;&gt;GTConversionDirective  -->
<g id="edge10" class="edge">
<title>GTTableModule&#45;&gt;GTConversionDirective </title>
<path fill="none" stroke="black" stroke-dasharray="5,2" d="M711.32,-149.91C711.32,-149.91 711.32,-168.79 711.32,-168.79"/>
<polygon fill="black" stroke="black" points="707.82,-168.79 711.32,-178.79 714.82,-168.79 707.82,-168.79"/>
</g>
<!-- GTGenericEditorComponent  -->
<g id="node12" class="node">
<title>GTGenericEditorComponent </title>
<polygon fill="#fb8072" stroke="black" points="684.29,-214.8 501.71,-214.8 501.71,-178.8 684.29,-178.8 684.29,-214.8"/>
<text text-anchor="middle" x="593" y="-192.6" font-family="Times,serif" font-size="14.00">GTGenericEditorComponent </text>
</g>
<!-- GTTableModule&#45;&gt;GTGenericEditorComponent  -->
<g id="edge11" class="edge">
<title>GTTableModule&#45;&gt;GTGenericEditorComponent </title>
<path fill="none" stroke="black" stroke-dasharray="5,2" d="M647.18,-149.91C647.18,-149.91 647.18,-168.79 647.18,-168.79"/>
<polygon fill="black" stroke="black" points="643.68,-168.79 647.18,-178.79 650.68,-168.79 643.68,-168.79"/>
</g>
<!-- GTMatErrorMessagesDirective  -->
<g id="node13" class="node">
<title>GTMatErrorMessagesDirective </title>
<polygon fill="#fb8072" stroke="black" points="483.27,-214.8 286.73,-214.8 286.73,-178.8 483.27,-178.8 483.27,-214.8"/>
<text text-anchor="middle" x="385" y="-192.6" font-family="Times,serif" font-size="14.00">GTMatErrorMessagesDirective </text>
</g>
<!-- GTTableModule&#45;&gt;GTMatErrorMessagesDirective  -->
<g id="edge12" class="edge">
<title>GTTableModule&#45;&gt;GTMatErrorMessagesDirective </title>
<path fill="none" stroke="black" stroke-dasharray="5,2" d="M609.68,-143.8C538.49,-143.8 423.88,-143.8 423.88,-143.8 423.88,-143.8 423.88,-168.56 423.88,-168.56"/>
<polygon fill="black" stroke="black" points="420.38,-168.56 423.88,-178.56 427.38,-168.56 420.38,-168.56"/>
</g>
<!-- GTSelectMaestroComponent  -->
<g id="node14" class="node">
<title>GTSelectMaestroComponent </title>
<polygon fill="#fb8072" stroke="black" points="268.58,-214.8 85.42,-214.8 85.42,-178.8 268.58,-178.8 268.58,-214.8"/>
<text text-anchor="middle" x="177" y="-192.6" font-family="Times,serif" font-size="14.00">GTSelectMaestroComponent </text>
</g>
<!-- GTTableModule&#45;&gt;GTSelectMaestroComponent  -->
<g id="edge13" class="edge">
<title>GTTableModule&#45;&gt;GTSelectMaestroComponent </title>
<path fill="none" stroke="black" stroke-dasharray="5,2" d="M609.66,-137.8C489.9,-137.8 217.38,-137.8 217.38,-137.8 217.38,-137.8 217.38,-168.78 217.38,-168.78"/>
<polygon fill="black" stroke="black" points="213.88,-168.78 217.38,-178.78 220.88,-168.78 213.88,-168.78"/>
</g>
<!-- GTSharedModule -->
<g id="node8" class="node">
<title>GTSharedModule</title>
<polygon fill="#8dd3c7" stroke="black" points="141.59,-84.8 138.59,-88.8 117.59,-88.8 114.59,-84.8 24.41,-84.8 24.41,-48.8 141.59,-48.8 141.59,-84.8"/>
<text text-anchor="middle" x="83" y="-62.6" font-family="Times,serif" font-size="14.00">GTSharedModule</text>
</g>
<!-- GTSharedModule&#45;&gt;GTTableModule -->
<g id="edge7" class="edge">
<title>GTSharedModule&#45;&gt;GTTableModule</title>
<path fill="none" stroke="black" d="M113.38,-84.91C113.38,-104.14 113.38,-131.8 113.38,-131.8 113.38,-131.8 599.84,-131.8 599.84,-131.8"/>
<polygon fill="black" stroke="black" points="599.84,-135.3 609.84,-131.8 599.84,-128.3 599.84,-135.3"/>
</g>
</g>
</svg>
