<?xml version="1.0" encoding="UTF-8" standalone="no"?>
<!DOCTYPE svg PUBLIC "-//W3C//DTD SVG 1.1//EN"
 "http://www.w3.org/Graphics/SVG/1.1/DTD/svg11.dtd">
<!-- Generated by graphviz version 5.0.0 (20220707.1540)
 -->
<!-- Title: dependencies Pages: 1 -->
<svg width="1306pt" height="247pt"
 viewBox="0.00 0.00 1306.00 246.80" xmlns="http://www.w3.org/2000/svg" xmlns:xlink="http://www.w3.org/1999/xlink">
<g id="graph0" class="graph" transform="scale(1 1) rotate(0) translate(4 242.8)">
<title>dependencies</title>
<polygon fill="white" stroke="transparent" points="-4,4 -4,-242.8 1302,-242.8 1302,4 -4,4"/>
<text text-anchor="middle" x="649" y="-8.2" font-family="sans-serif" font-size="14.00">dependencies</text>
<g id="clust1" class="cluster">
<title>cluster_GTFormModule</title>
<polygon fill="none" stroke="black" stroke-dasharray="1,5" points="8,-32.8 8,-230.8 1290,-230.8 1290,-32.8 8,-32.8"/>
</g>
<g id="clust10" class="cluster">
<title>cluster_GTFormModule_exports</title>
<polygon fill="none" stroke="black" points="92,-170.8 92,-222.8 1206,-222.8 1206,-170.8 92,-170.8"/>
</g>
<g id="clust2" class="cluster">
<title>cluster_GTFormModule_declarations</title>
<polygon fill="none" stroke="black" points="188,-40.8 188,-92.8 1282,-92.8 1282,-40.8 188,-40.8"/>
</g>
<g id="clust12" class="cluster">
<title>cluster_GTFormModule_providers</title>
<polygon fill="none" stroke="black" points="16,-40.8 16,-92.8 180,-92.8 180,-40.8 16,-40.8"/>
</g>
<!-- GTBotoneraComponent -->
<g id="node1" class="node">
<title>GTBotoneraComponent</title>
<polygon fill="#ffffb3" stroke="black" points="1273.81,-84.8 1122.19,-84.8 1122.19,-48.8 1273.81,-48.8 1273.81,-84.8"/>
<text text-anchor="middle" x="1198" y="-62.6" font-family="Times,serif" font-size="14.00">GTBotoneraComponent</text>
</g>
<!-- GTFormModule -->
<g id="node7" class="node">
<title>GTFormModule</title>
<polygon fill="#8dd3c7" stroke="black" points="749.05,-149.8 746.05,-153.8 725.05,-153.8 722.05,-149.8 640.95,-149.8 640.95,-113.8 749.05,-113.8 749.05,-149.8"/>
<text text-anchor="middle" x="695" y="-127.6" font-family="Times,serif" font-size="14.00">GTFormModule</text>
</g>
<!-- GTBotoneraComponent&#45;&gt;GTFormModule -->
<g id="edge1" class="edge">
<title>GTBotoneraComponent&#45;&gt;GTFormModule</title>
<path fill="none" stroke="black" d="M1160.38,-84.91C1160.38,-104.14 1160.38,-131.8 1160.38,-131.8 1160.38,-131.8 759.3,-131.8 759.3,-131.8"/>
<polygon fill="black" stroke="black" points="759.3,-128.3 749.3,-131.8 759.3,-135.3 759.3,-128.3"/>
</g>
<!-- GTChipsComponent -->
<g id="node2" class="node">
<title>GTChipsComponent</title>
<polygon fill="#ffffb3" stroke="black" points="1104.17,-84.8 971.83,-84.8 971.83,-48.8 1104.17,-48.8 1104.17,-84.8"/>
<text text-anchor="middle" x="1038" y="-62.6" font-family="Times,serif" font-size="14.00">GTChipsComponent</text>
</g>
<!-- GTChipsComponent&#45;&gt;GTFormModule -->
<g id="edge2" class="edge">
<title>GTChipsComponent&#45;&gt;GTFormModule</title>
<path fill="none" stroke="black" d="M998.88,-84.82C998.88,-102.17 998.88,-125.8 998.88,-125.8 998.88,-125.8 759.33,-125.8 759.33,-125.8"/>
<polygon fill="black" stroke="black" points="759.33,-122.3 749.33,-125.8 759.33,-129.3 759.33,-122.3"/>
</g>
<!-- GTConversionDirective -->
<g id="node3" class="node">
<title>GTConversionDirective</title>
<polygon fill="#ffffb3" stroke="black" points="953.8,-84.8 802.2,-84.8 802.2,-48.8 953.8,-48.8 953.8,-84.8"/>
<text text-anchor="middle" x="878" y="-62.6" font-family="Times,serif" font-size="14.00">GTConversionDirective</text>
</g>
<!-- GTConversionDirective&#45;&gt;GTFormModule -->
<g id="edge3" class="edge">
<title>GTConversionDirective&#45;&gt;GTFormModule</title>
<path fill="none" stroke="black" d="M837.38,-85.04C837.38,-100.37 837.38,-119.8 837.38,-119.8 837.38,-119.8 759.23,-119.8 759.23,-119.8"/>
<polygon fill="black" stroke="black" points="759.23,-116.3 749.23,-119.8 759.23,-123.3 759.23,-116.3"/>
</g>
<!-- GTGenericEditorComponent -->
<g id="node4" class="node">
<title>GTGenericEditorComponent</title>
<polygon fill="#ffffb3" stroke="black" points="784.79,-84.8 605.21,-84.8 605.21,-48.8 784.79,-48.8 784.79,-84.8"/>
<text text-anchor="middle" x="695" y="-62.6" font-family="Times,serif" font-size="14.00">GTGenericEditorComponent</text>
</g>
<!-- GTGenericEditorComponent&#45;&gt;GTFormModule -->
<g id="edge4" class="edge">
<title>GTGenericEditorComponent&#45;&gt;GTFormModule</title>
<path fill="none" stroke="black" d="M695,-84.91C695,-84.91 695,-103.79 695,-103.79"/>
<polygon fill="black" stroke="black" points="691.5,-103.79 695,-113.79 698.5,-103.79 691.5,-103.79"/>
</g>
<!-- GTMatErrorMessagesDirective -->
<g id="node5" class="node">
<title>GTMatErrorMessagesDirective</title>
<polygon fill="#ffffb3" stroke="black" points="587.77,-84.8 394.23,-84.8 394.23,-48.8 587.77,-48.8 587.77,-84.8"/>
<text text-anchor="middle" x="491" y="-62.6" font-family="Times,serif" font-size="14.00">GTMatErrorMessagesDirective</text>
</g>
<!-- GTMatErrorMessagesDirective&#45;&gt;GTFormModule -->
<g id="edge5" class="edge">
<title>GTMatErrorMessagesDirective&#45;&gt;GTFormModule</title>
<path fill="none" stroke="black" d="M552.12,-85.04C552.12,-100.37 552.12,-119.8 552.12,-119.8 552.12,-119.8 630.58,-119.8 630.58,-119.8"/>
<polygon fill="black" stroke="black" points="630.58,-123.3 640.58,-119.8 630.58,-116.3 630.58,-123.3"/>
</g>
<!-- GTSelectMaestroComponent -->
<g id="node6" class="node">
<title>GTSelectMaestroComponent</title>
<polygon fill="#ffffb3" stroke="black" points="376.08,-84.8 195.92,-84.8 195.92,-48.8 376.08,-48.8 376.08,-84.8"/>
<text text-anchor="middle" x="286" y="-62.6" font-family="Times,serif" font-size="14.00">GTSelectMaestroComponent</text>
</g>
<!-- GTSelectMaestroComponent&#45;&gt;GTFormModule -->
<g id="edge6" class="edge">
<title>GTSelectMaestroComponent&#45;&gt;GTFormModule</title>
<path fill="none" stroke="black" d="M338.83,-84.82C338.83,-102.17 338.83,-125.8 338.83,-125.8 338.83,-125.8 630.9,-125.8 630.9,-125.8"/>
<polygon fill="black" stroke="black" points="630.9,-129.3 640.9,-125.8 630.9,-122.3 630.9,-129.3"/>
</g>
<!-- GTBotoneraComponent  -->
<g id="node8" class="node">
<title>GTBotoneraComponent </title>
<polygon fill="#fb8072" stroke="black" points="1198.31,-214.8 1043.69,-214.8 1043.69,-178.8 1198.31,-178.8 1198.31,-214.8"/>
<text text-anchor="middle" x="1121" y="-192.6" font-family="Times,serif" font-size="14.00">GTBotoneraComponent </text>
</g>
<!-- GTFormModule&#45;&gt;GTBotoneraComponent  -->
<g id="edge7" class="edge">
<title>GTFormModule&#45;&gt;GTBotoneraComponent </title>
<path fill="none" stroke="black" stroke-dasharray="5,2" d="M749.3,-137.8C854.08,-137.8 1073.96,-137.8 1073.96,-137.8 1073.96,-137.8 1073.96,-168.78 1073.96,-168.78"/>
<polygon fill="black" stroke="black" points="1070.46,-168.78 1073.96,-178.78 1077.46,-168.78 1070.46,-168.78"/>
</g>
<!-- GTChipsComponent  -->
<g id="node9" class="node">
<title>GTChipsComponent </title>
<polygon fill="#fb8072" stroke="black" points="1026.17,-214.8 889.83,-214.8 889.83,-178.8 1026.17,-178.8 1026.17,-214.8"/>
<text text-anchor="middle" x="958" y="-192.6" font-family="Times,serif" font-size="14.00">GTChipsComponent </text>
</g>
<!-- GTFormModule&#45;&gt;GTChipsComponent  -->
<g id="edge8" class="edge">
<title>GTFormModule&#45;&gt;GTChipsComponent </title>
<path fill="none" stroke="black" stroke-dasharray="5,2" d="M749.32,-143.8C816.41,-143.8 921.78,-143.8 921.78,-143.8 921.78,-143.8 921.78,-168.56 921.78,-168.56"/>
<polygon fill="black" stroke="black" points="918.28,-168.56 921.78,-178.56 925.28,-168.56 918.28,-168.56"/>
</g>
<!-- GTConversionDirective  -->
<g id="node10" class="node">
<title>GTConversionDirective </title>
<polygon fill="#fb8072" stroke="black" points="872.3,-214.8 717.7,-214.8 717.7,-178.8 872.3,-178.8 872.3,-214.8"/>
<text text-anchor="middle" x="795" y="-192.6" font-family="Times,serif" font-size="14.00">GTConversionDirective </text>
</g>
<!-- GTFormModule&#45;&gt;GTConversionDirective  -->
<g id="edge9" class="edge">
<title>GTFormModule&#45;&gt;GTConversionDirective </title>
<path fill="none" stroke="black" stroke-dasharray="5,2" d="M733.44,-149.91C733.44,-149.91 733.44,-168.79 733.44,-168.79"/>
<polygon fill="black" stroke="black" points="729.94,-168.79 733.44,-178.79 736.94,-168.79 729.94,-168.79"/>
</g>
<!-- GTGenericEditorComponent  -->
<g id="node11" class="node">
<title>GTGenericEditorComponent </title>
<polygon fill="#fb8072" stroke="black" points="699.29,-214.8 516.71,-214.8 516.71,-178.8 699.29,-178.8 699.29,-214.8"/>
<text text-anchor="middle" x="608" y="-192.6" font-family="Times,serif" font-size="14.00">GTGenericEditorComponent </text>
</g>
<!-- GTFormModule&#45;&gt;GTGenericEditorComponent  -->
<g id="edge10" class="edge">
<title>GTFormModule&#45;&gt;GTGenericEditorComponent </title>
<path fill="none" stroke="black" stroke-dasharray="5,2" d="M670.06,-149.91C670.06,-149.91 670.06,-168.79 670.06,-168.79"/>
<polygon fill="black" stroke="black" points="666.56,-168.79 670.06,-178.79 673.56,-168.79 666.56,-168.79"/>
</g>
<!-- GTMatErrorMessagesDirective  -->
<g id="node12" class="node">
<title>GTMatErrorMessagesDirective </title>
<polygon fill="#fb8072" stroke="black" points="498.27,-214.8 301.73,-214.8 301.73,-178.8 498.27,-178.8 498.27,-214.8"/>
<text text-anchor="middle" x="400" y="-192.6" font-family="Times,serif" font-size="14.00">GTMatErrorMessagesDirective </text>
</g>
<!-- GTFormModule&#45;&gt;GTMatErrorMessagesDirective  -->
<g id="edge11" class="edge">
<title>GTFormModule&#45;&gt;GTMatErrorMessagesDirective </title>
<path fill="none" stroke="black" stroke-dasharray="5,2" d="M640.75,-143.8C567.59,-143.8 446.38,-143.8 446.38,-143.8 446.38,-143.8 446.38,-168.56 446.38,-168.56"/>
<polygon fill="black" stroke="black" points="442.88,-168.56 446.38,-178.56 449.88,-168.56 442.88,-168.56"/>
</g>
<!-- GTSelectMaestroComponent  -->
<g id="node13" class="node">
<title>GTSelectMaestroComponent </title>
<polygon fill="#fb8072" stroke="black" points="283.58,-214.8 100.42,-214.8 100.42,-178.8 283.58,-178.8 283.58,-214.8"/>
<text text-anchor="middle" x="192" y="-192.6" font-family="Times,serif" font-size="14.00">GTSelectMaestroComponent </text>
</g>
<!-- GTFormModule&#45;&gt;GTSelectMaestroComponent  -->
<g id="edge12" class="edge">
<title>GTFormModule&#45;&gt;GTSelectMaestroComponent </title>
<path fill="none" stroke="black" stroke-dasharray="5,2" d="M640.55,-137.8C519.75,-137.8 239.88,-137.8 239.88,-137.8 239.88,-137.8 239.88,-168.78 239.88,-168.78"/>
<polygon fill="black" stroke="black" points="236.38,-168.78 239.88,-178.78 243.38,-168.78 236.38,-168.78"/>
</g>
<!-- GTFormService -->
<g id="node14" class="node">
<title>GTFormService</title>
<ellipse fill="#fdb462" stroke="black" cx="98" cy="-66.8" rx="73.59" ry="18"/>
<text text-anchor="middle" x="98" y="-62.6" font-family="Times,serif" font-size="14.00">GTFormService</text>
</g>
<!-- GTFormService&#45;&gt;GTFormModule -->
<g id="edge13" class="edge">
<title>GTFormService&#45;&gt;GTFormModule</title>
<path fill="none" stroke="black" d="M136,-82.53C136,-101.77 136,-131.8 136,-131.8 136,-131.8 630.89,-131.8 630.89,-131.8"/>
<polygon fill="black" stroke="black" points="630.89,-135.3 640.89,-131.8 630.89,-128.3 630.89,-135.3"/>
</g>
</g>
</svg>
