<?xml version="1.0" encoding="UTF-8" standalone="no"?>
<!DOCTYPE svg PUBLIC "-//W3C//DTD SVG 1.1//EN"
 "http://www.w3.org/Graphics/SVG/1.1/DTD/svg11.dtd">
<!-- Generated by graphviz version 5.0.0 (20220707.1540)
 -->
<!-- Title: dependencies Pages: 1 -->
<svg width="512pt" height="247pt"
 viewBox="0.00 0.00 512.00 246.80" xmlns="http://www.w3.org/2000/svg" xmlns:xlink="http://www.w3.org/1999/xlink">
<g id="graph0" class="graph" transform="scale(1 1) rotate(0) translate(4 242.8)">
<title>dependencies</title>
<polygon fill="white" stroke="transparent" points="-4,4 -4,-242.8 508,-242.8 508,4 -4,4"/>
<text text-anchor="middle" x="252" y="-8.2" font-family="sans-serif" font-size="14.00">dependencies</text>
<g id="clust1" class="cluster">
<title>cluster_GTSharedModule</title>
<polygon fill="none" stroke="black" stroke-dasharray="1,5" points="8,-32.8 8,-230.8 496,-230.8 496,-32.8 8,-32.8"/>
</g>
<g id="clust2" class="cluster">
<title>cluster_GTSharedModule_declarations</title>
<polygon fill="none" stroke="black" points="174,-40.8 174,-92.8 488,-92.8 488,-40.8 174,-40.8"/>
</g>
<g id="clust6" class="cluster">
<title>cluster_GTSharedModule_exports</title>
<polygon fill="none" stroke="black" points="172,-170.8 172,-222.8 294,-222.8 294,-170.8 172,-170.8"/>
</g>
<g id="clust8" class="cluster">
<title>cluster_GTSharedModule_providers</title>
<polygon fill="none" stroke="black" points="16,-40.8 16,-92.8 166,-92.8 166,-40.8 16,-40.8"/>
</g>
<!-- GTConfirmacionComponent -->
<g id="node1" class="node">
<title>GTConfirmacionComponent</title>
<polygon fill="#ffffb3" stroke="black" points="479.75,-84.8 302.25,-84.8 302.25,-48.8 479.75,-48.8 479.75,-84.8"/>
<text text-anchor="middle" x="391" y="-62.6" font-family="Times,serif" font-size="14.00">GTConfirmacionComponent</text>
</g>
<!-- GTSharedModule -->
<g id="node3" class="node">
<title>GTSharedModule</title>
<polygon fill="#8dd3c7" stroke="black" points="291.59,-149.8 288.59,-153.8 267.59,-153.8 264.59,-149.8 174.41,-149.8 174.41,-113.8 291.59,-113.8 291.59,-149.8"/>
<text text-anchor="middle" x="233" y="-127.6" font-family="Times,serif" font-size="14.00">GTSharedModule</text>
</g>
<!-- GTConfirmacionComponent&#45;&gt;GTSharedModule -->
<g id="edge1" class="edge">
<title>GTConfirmacionComponent&#45;&gt;GTSharedModule</title>
<path fill="none" stroke="black" d="M302.03,-66.8C293.33,-66.8 287.66,-66.8 287.66,-66.8 287.66,-66.8 287.66,-103.69 287.66,-103.69"/>
<polygon fill="black" stroke="black" points="284.16,-103.69 287.66,-113.69 291.16,-103.69 284.16,-103.69"/>
</g>
<!-- TextoSlicePipe -->
<g id="node2" class="node">
<title>TextoSlicePipe</title>
<polygon fill="#ffffb3" stroke="black" points="283.54,-84.8 182.46,-84.8 182.46,-48.8 283.54,-48.8 283.54,-84.8"/>
<text text-anchor="middle" x="233" y="-62.6" font-family="Times,serif" font-size="14.00">TextoSlicePipe</text>
</g>
<!-- TextoSlicePipe&#45;&gt;GTSharedModule -->
<g id="edge2" class="edge">
<title>TextoSlicePipe&#45;&gt;GTSharedModule</title>
<path fill="none" stroke="black" d="M233,-84.91C233,-84.91 233,-103.79 233,-103.79"/>
<polygon fill="black" stroke="black" points="229.5,-103.79 233,-113.79 236.5,-103.79 229.5,-103.79"/>
</g>
<!-- TextoSlicePipe  -->
<g id="node4" class="node">
<title>TextoSlicePipe </title>
<polygon fill="#fb8072" stroke="black" points="285.54,-214.8 180.46,-214.8 180.46,-178.8 285.54,-178.8 285.54,-214.8"/>
<text text-anchor="middle" x="233" y="-192.6" font-family="Times,serif" font-size="14.00">TextoSlicePipe </text>
</g>
<!-- GTSharedModule&#45;&gt;TextoSlicePipe  -->
<g id="edge3" class="edge">
<title>GTSharedModule&#45;&gt;TextoSlicePipe </title>
<path fill="none" stroke="black" stroke-dasharray="5,2" d="M233,-149.91C233,-149.91 233,-168.79 233,-168.79"/>
<polygon fill="black" stroke="black" points="229.5,-168.79 233,-178.79 236.5,-168.79 229.5,-168.79"/>
</g>
<!-- SharedService -->
<g id="node5" class="node">
<title>SharedService</title>
<ellipse fill="#fdb462" stroke="black" cx="91" cy="-66.8" rx="66.62" ry="18"/>
<text text-anchor="middle" x="91" y="-62.6" font-family="Times,serif" font-size="14.00">SharedService</text>
</g>
<!-- SharedService&#45;&gt;GTSharedModule -->
<g id="edge4" class="edge">
<title>SharedService&#45;&gt;GTSharedModule</title>
<path fill="none" stroke="black" d="M158.09,-66.8C169.81,-66.8 178.34,-66.8 178.34,-66.8 178.34,-66.8 178.34,-103.69 178.34,-103.69"/>
<polygon fill="black" stroke="black" points="174.84,-103.69 178.34,-113.69 181.84,-103.69 174.84,-103.69"/>
</g>
</g>
</svg>
