<?xml version="1.0" encoding="UTF-8" standalone="no"?>
<!DOCTYPE svg PUBLIC "-//W3C//DTD SVG 1.1//EN"
 "http://www.w3.org/Graphics/SVG/1.1/DTD/svg11.dtd">
<!-- Generated by graphviz version 5.0.0 (20220707.1540)
 -->
<!-- Title: dependencies Pages: 1 -->
<svg width="354pt" height="247pt"
 viewBox="0.00 0.00 354.00 246.80" xmlns="http://www.w3.org/2000/svg" xmlns:xlink="http://www.w3.org/1999/xlink">
<g id="graph0" class="graph" transform="scale(1 1) rotate(0) translate(4 242.8)">
<title>dependencies</title>
<polygon fill="white" stroke="transparent" points="-4,4 -4,-242.8 350,-242.8 350,4 -4,4"/>
<text text-anchor="middle" x="173" y="-8.2" font-family="sans-serif" font-size="14.00">dependencies</text>
<g id="clust1" class="cluster">
<title>cluster_GTSharedModule</title>
<polygon fill="none" stroke="black" stroke-dasharray="1,5" points="8,-32.8 8,-230.8 338,-230.8 338,-32.8 8,-32.8"/>
</g>
<g id="clust2" class="cluster">
<title>cluster_GTSharedModule_declarations</title>
<polygon fill="none" stroke="black" points="16,-40.8 16,-92.8 330,-92.8 330,-40.8 16,-40.8"/>
</g>
<g id="clust6" class="cluster">
<title>cluster_GTSharedModule_exports</title>
<polygon fill="none" stroke="black" points="94,-170.8 94,-222.8 216,-222.8 216,-170.8 94,-170.8"/>
</g>
<!-- GTConfirmacionComponent -->
<g id="node1" class="node">
<title>GTConfirmacionComponent</title>
<polygon fill="#ffffb3" stroke="black" points="321.75,-84.8 144.25,-84.8 144.25,-48.8 321.75,-48.8 321.75,-84.8"/>
<text text-anchor="middle" x="233" y="-62.6" font-family="Times,serif" font-size="14.00">GTConfirmacionComponent</text>
</g>
<!-- GTSharedModule -->
<g id="node3" class="node">
<title>GTSharedModule</title>
<polygon fill="#8dd3c7" stroke="black" points="213.59,-149.8 210.59,-153.8 189.59,-153.8 186.59,-149.8 96.41,-149.8 96.41,-113.8 213.59,-113.8 213.59,-149.8"/>
<text text-anchor="middle" x="155" y="-127.6" font-family="Times,serif" font-size="14.00">GTSharedModule</text>
</g>
<!-- GTConfirmacionComponent&#45;&gt;GTSharedModule -->
<g id="edge1" class="edge">
<title>GTConfirmacionComponent&#45;&gt;GTSharedModule</title>
<path fill="none" stroke="black" d="M178.83,-84.91C178.83,-84.91 178.83,-103.79 178.83,-103.79"/>
<polygon fill="black" stroke="black" points="175.33,-103.79 178.83,-113.79 182.33,-103.79 175.33,-103.79"/>
</g>
<!-- TextoSlicePipe -->
<g id="node2" class="node">
<title>TextoSlicePipe</title>
<polygon fill="#ffffb3" stroke="black" points="125.54,-84.8 24.46,-84.8 24.46,-48.8 125.54,-48.8 125.54,-84.8"/>
<text text-anchor="middle" x="75" y="-62.6" font-family="Times,serif" font-size="14.00">TextoSlicePipe</text>
</g>
<!-- TextoSlicePipe&#45;&gt;GTSharedModule -->
<g id="edge2" class="edge">
<title>TextoSlicePipe&#45;&gt;GTSharedModule</title>
<path fill="none" stroke="black" d="M111.11,-84.91C111.11,-84.91 111.11,-103.79 111.11,-103.79"/>
<polygon fill="black" stroke="black" points="107.61,-103.79 111.11,-113.79 114.61,-103.79 107.61,-103.79"/>
</g>
<!-- TextoSlicePipe  -->
<g id="node4" class="node">
<title>TextoSlicePipe </title>
<polygon fill="#fb8072" stroke="black" points="207.54,-214.8 102.46,-214.8 102.46,-178.8 207.54,-178.8 207.54,-214.8"/>
<text text-anchor="middle" x="155" y="-192.6" font-family="Times,serif" font-size="14.00">TextoSlicePipe </text>
</g>
<!-- GTSharedModule&#45;&gt;TextoSlicePipe  -->
<g id="edge3" class="edge">
<title>GTSharedModule&#45;&gt;TextoSlicePipe </title>
<path fill="none" stroke="black" stroke-dasharray="5,2" d="M155,-149.91C155,-149.91 155,-168.79 155,-168.79"/>
<polygon fill="black" stroke="black" points="151.5,-168.79 155,-178.79 158.5,-168.79 151.5,-168.79"/>
</g>
</g>
</svg>
