<?xml version="1.0" encoding="UTF-8" standalone="no"?>
<!DOCTYPE svg PUBLIC "-//W3C//DTD SVG 1.1//EN"
 "http://www.w3.org/Graphics/SVG/1.1/DTD/svg11.dtd">
<!-- Generated by graphviz version 5.0.0 (20220707.1540)
 -->
<!-- Title: dependencies Pages: 1 -->
<svg width="1154pt" height="247pt"
 viewBox="0.00 0.00 1154.00 246.80" xmlns="http://www.w3.org/2000/svg" xmlns:xlink="http://www.w3.org/1999/xlink">
<g id="graph0" class="graph" transform="scale(1 1) rotate(0) translate(4 242.8)">
<title>dependencies</title>
<polygon fill="white" stroke="transparent" points="-4,4 -4,-242.8 1150,-242.8 1150,4 -4,4"/>
<text text-anchor="middle" x="573" y="-8.2" font-family="sans-serif" font-size="14.00">dependencies</text>
<g id="clust1" class="cluster">
<title>cluster_GTFormModule</title>
<polygon fill="none" stroke="black" stroke-dasharray="1,5" points="8,-32.8 8,-230.8 1138,-230.8 1138,-32.8 8,-32.8"/>
</g>
<g id="clust2" class="cluster">
<title>cluster_GTFormModule_declarations</title>
<polygon fill="none" stroke="black" points="28,-40.8 28,-92.8 1122,-92.8 1122,-40.8 28,-40.8"/>
</g>
<g id="clust10" class="cluster">
<title>cluster_GTFormModule_exports</title>
<polygon fill="none" stroke="black" points="16,-170.8 16,-222.8 1130,-222.8 1130,-170.8 16,-170.8"/>
</g>
<!-- GTBotoneraComponent -->
<g id="node1" class="node">
<title>GTBotoneraComponent</title>
<polygon fill="#ffffb3" stroke="black" points="1113.81,-84.8 962.19,-84.8 962.19,-48.8 1113.81,-48.8 1113.81,-84.8"/>
<text text-anchor="middle" x="1038" y="-62.6" font-family="Times,serif" font-size="14.00">GTBotoneraComponent</text>
</g>
<!-- GTFormModule -->
<g id="node7" class="node">
<title>GTFormModule</title>
<polygon fill="#8dd3c7" stroke="black" points="593.05,-149.8 590.05,-153.8 569.05,-153.8 566.05,-149.8 484.95,-149.8 484.95,-113.8 593.05,-113.8 593.05,-149.8"/>
<text text-anchor="middle" x="539" y="-127.6" font-family="Times,serif" font-size="14.00">GTFormModule</text>
</g>
<!-- GTBotoneraComponent&#45;&gt;GTFormModule -->
<g id="edge1" class="edge">
<title>GTBotoneraComponent&#45;&gt;GTFormModule</title>
<path fill="none" stroke="black" d="M1064.97,-85.02C1064.97,-103.63 1064.97,-129.8 1064.97,-129.8 1064.97,-129.8 603.31,-129.8 603.31,-129.8"/>
<polygon fill="black" stroke="black" points="603.31,-126.3 593.31,-129.8 603.31,-133.3 603.31,-126.3"/>
</g>
<!-- GTChipsComponent -->
<g id="node2" class="node">
<title>GTChipsComponent</title>
<polygon fill="#ffffb3" stroke="black" points="944.17,-84.8 811.83,-84.8 811.83,-48.8 944.17,-48.8 944.17,-84.8"/>
<text text-anchor="middle" x="878" y="-62.6" font-family="Times,serif" font-size="14.00">GTChipsComponent</text>
</g>
<!-- GTChipsComponent&#45;&gt;GTFormModule -->
<g id="edge2" class="edge">
<title>GTChipsComponent&#45;&gt;GTFormModule</title>
<path fill="none" stroke="black" d="M900.86,-84.83C900.86,-101.86 900.86,-124.8 900.86,-124.8 900.86,-124.8 603.17,-124.8 603.17,-124.8"/>
<polygon fill="black" stroke="black" points="603.17,-121.3 593.17,-124.8 603.17,-128.3 603.17,-121.3"/>
</g>
<!-- GTConversionDirective -->
<g id="node3" class="node">
<title>GTConversionDirective</title>
<polygon fill="#ffffb3" stroke="black" points="793.8,-84.8 642.2,-84.8 642.2,-48.8 793.8,-48.8 793.8,-84.8"/>
<text text-anchor="middle" x="718" y="-62.6" font-family="Times,serif" font-size="14.00">GTConversionDirective</text>
</g>
<!-- GTConversionDirective&#45;&gt;GTFormModule -->
<g id="edge3" class="edge">
<title>GTConversionDirective&#45;&gt;GTFormModule</title>
<path fill="none" stroke="black" d="M743.22,-85.04C743.22,-100.37 743.22,-119.8 743.22,-119.8 743.22,-119.8 603.19,-119.8 603.19,-119.8"/>
<polygon fill="black" stroke="black" points="603.19,-116.3 593.19,-119.8 603.19,-123.3 603.19,-116.3"/>
</g>
<!-- GTGenericEditorComponent -->
<g id="node4" class="node">
<title>GTGenericEditorComponent</title>
<polygon fill="#ffffb3" stroke="black" points="624.79,-84.8 445.21,-84.8 445.21,-48.8 624.79,-48.8 624.79,-84.8"/>
<text text-anchor="middle" x="535" y="-62.6" font-family="Times,serif" font-size="14.00">GTGenericEditorComponent</text>
</g>
<!-- GTGenericEditorComponent&#45;&gt;GTFormModule -->
<g id="edge4" class="edge">
<title>GTGenericEditorComponent&#45;&gt;GTFormModule</title>
<path fill="none" stroke="black" d="M539,-84.91C539,-84.91 539,-103.79 539,-103.79"/>
<polygon fill="black" stroke="black" points="535.5,-103.79 539,-113.79 542.5,-103.79 535.5,-103.79"/>
</g>
<!-- GTMatErrorMessagesDirective -->
<g id="node5" class="node">
<title>GTMatErrorMessagesDirective</title>
<polygon fill="#ffffb3" stroke="black" points="427.77,-84.8 234.23,-84.8 234.23,-48.8 427.77,-48.8 427.77,-84.8"/>
<text text-anchor="middle" x="331" y="-62.6" font-family="Times,serif" font-size="14.00">GTMatErrorMessagesDirective</text>
</g>
<!-- GTMatErrorMessagesDirective&#45;&gt;GTFormModule -->
<g id="edge5" class="edge">
<title>GTMatErrorMessagesDirective&#45;&gt;GTFormModule</title>
<path fill="none" stroke="black" d="M359.71,-84.81C359.71,-100.85 359.71,-121.8 359.71,-121.8 359.71,-121.8 474.72,-121.8 474.72,-121.8"/>
<polygon fill="black" stroke="black" points="474.72,-125.3 484.72,-121.8 474.72,-118.3 474.72,-125.3"/>
</g>
<!-- GTSelectMaestroComponent -->
<g id="node6" class="node">
<title>GTSelectMaestroComponent</title>
<polygon fill="#ffffb3" stroke="black" points="216.08,-84.8 35.92,-84.8 35.92,-48.8 216.08,-48.8 216.08,-84.8"/>
<text text-anchor="middle" x="126" y="-62.6" font-family="Times,serif" font-size="14.00">GTSelectMaestroComponent</text>
</g>
<!-- GTSelectMaestroComponent&#45;&gt;GTFormModule -->
<g id="edge6" class="edge">
<title>GTSelectMaestroComponent&#45;&gt;GTFormModule</title>
<path fill="none" stroke="black" d="M211.91,-85.07C211.91,-103.36 211.91,-128.8 211.91,-128.8 211.91,-128.8 474.62,-128.8 474.62,-128.8"/>
<polygon fill="black" stroke="black" points="474.62,-132.3 484.62,-128.8 474.62,-125.3 474.62,-132.3"/>
</g>
<!-- GTBotoneraComponent  -->
<g id="node8" class="node">
<title>GTBotoneraComponent </title>
<polygon fill="#fb8072" stroke="black" points="1122.31,-214.8 967.69,-214.8 967.69,-178.8 1122.31,-178.8 1122.31,-214.8"/>
<text text-anchor="middle" x="1045" y="-192.6" font-family="Times,serif" font-size="14.00">GTBotoneraComponent </text>
</g>
<!-- GTFormModule&#45;&gt;GTBotoneraComponent  -->
<g id="edge7" class="edge">
<title>GTFormModule&#45;&gt;GTBotoneraComponent </title>
<path fill="none" stroke="black" stroke-dasharray="5,2" d="M593.29,-134.8C718.38,-134.8 1016.28,-134.8 1016.28,-134.8 1016.28,-134.8 1016.28,-168.53 1016.28,-168.53"/>
<polygon fill="black" stroke="black" points="1012.78,-168.53 1016.28,-178.53 1019.78,-168.53 1012.78,-168.53"/>
</g>
<!-- GTChipsComponent  -->
<g id="node9" class="node">
<title>GTChipsComponent </title>
<polygon fill="#fb8072" stroke="black" points="950.17,-214.8 813.83,-214.8 813.83,-178.8 950.17,-178.8 950.17,-214.8"/>
<text text-anchor="middle" x="882" y="-192.6" font-family="Times,serif" font-size="14.00">GTChipsComponent </text>
</g>
<!-- GTFormModule&#45;&gt;GTChipsComponent  -->
<g id="edge8" class="edge">
<title>GTFormModule&#45;&gt;GTChipsComponent </title>
<path fill="none" stroke="black" stroke-dasharray="5,2" d="M593.37,-139.8C684.31,-139.8 857.39,-139.8 857.39,-139.8 857.39,-139.8 857.39,-168.76 857.39,-168.76"/>
<polygon fill="black" stroke="black" points="853.89,-168.76 857.39,-178.76 860.89,-168.76 853.89,-168.76"/>
</g>
<!-- GTConversionDirective  -->
<g id="node10" class="node">
<title>GTConversionDirective </title>
<polygon fill="#fb8072" stroke="black" points="796.3,-214.8 641.7,-214.8 641.7,-178.8 796.3,-178.8 796.3,-214.8"/>
<text text-anchor="middle" x="719" y="-192.6" font-family="Times,serif" font-size="14.00">GTConversionDirective </text>
</g>
<!-- GTFormModule&#45;&gt;GTConversionDirective  -->
<g id="edge9" class="edge">
<title>GTFormModule&#45;&gt;GTConversionDirective </title>
<path fill="none" stroke="black" stroke-dasharray="5,2" d="M593.22,-144.8C637.49,-144.8 692.78,-144.8 692.78,-144.8 692.78,-144.8 692.78,-168.61 692.78,-168.61"/>
<polygon fill="black" stroke="black" points="689.28,-168.61 692.78,-178.61 696.28,-168.61 689.28,-168.61"/>
</g>
<!-- GTGenericEditorComponent  -->
<g id="node11" class="node">
<title>GTGenericEditorComponent </title>
<polygon fill="#fb8072" stroke="black" points="623.29,-214.8 440.71,-214.8 440.71,-178.8 623.29,-178.8 623.29,-214.8"/>
<text text-anchor="middle" x="532" y="-192.6" font-family="Times,serif" font-size="14.00">GTGenericEditorComponent </text>
</g>
<!-- GTFormModule&#45;&gt;GTGenericEditorComponent  -->
<g id="edge10" class="edge">
<title>GTFormModule&#45;&gt;GTGenericEditorComponent </title>
<path fill="none" stroke="black" stroke-dasharray="5,2" d="M539,-149.91C539,-149.91 539,-168.79 539,-168.79"/>
<polygon fill="black" stroke="black" points="535.5,-168.79 539,-178.79 542.5,-168.79 535.5,-168.79"/>
</g>
<!-- GTMatErrorMessagesDirective  -->
<g id="node12" class="node">
<title>GTMatErrorMessagesDirective </title>
<polygon fill="#fb8072" stroke="black" points="422.27,-214.8 225.73,-214.8 225.73,-178.8 422.27,-178.8 422.27,-214.8"/>
<text text-anchor="middle" x="324" y="-192.6" font-family="Times,serif" font-size="14.00">GTMatErrorMessagesDirective </text>
</g>
<!-- GTFormModule&#45;&gt;GTMatErrorMessagesDirective  -->
<g id="edge11" class="edge">
<title>GTFormModule&#45;&gt;GTMatErrorMessagesDirective </title>
<path fill="none" stroke="black" stroke-dasharray="5,2" d="M484.7,-142.8C413.36,-142.8 297.04,-142.8 297.04,-142.8 297.04,-142.8 297.04,-168.52 297.04,-168.52"/>
<polygon fill="black" stroke="black" points="293.54,-168.52 297.04,-178.52 300.54,-168.52 293.54,-168.52"/>
</g>
<!-- GTSelectMaestroComponent  -->
<g id="node13" class="node">
<title>GTSelectMaestroComponent </title>
<polygon fill="#fb8072" stroke="black" points="207.58,-214.8 24.42,-214.8 24.42,-178.8 207.58,-178.8 207.58,-214.8"/>
<text text-anchor="middle" x="116" y="-192.6" font-family="Times,serif" font-size="14.00">GTSelectMaestroComponent </text>
</g>
<!-- GTFormModule&#45;&gt;GTSelectMaestroComponent  -->
<g id="edge12" class="edge">
<title>GTFormModule&#45;&gt;GTSelectMaestroComponent </title>
<path fill="none" stroke="black" stroke-dasharray="5,2" d="M484.9,-135.8C372.03,-135.8 121.88,-135.8 121.88,-135.8 121.88,-135.8 121.88,-168.5 121.88,-168.5"/>
<polygon fill="black" stroke="black" points="118.38,-168.5 121.88,-178.5 125.38,-168.5 118.38,-168.5"/>
</g>
</g>
</svg>
