<?xml version="1.0" encoding="UTF-8" standalone="no"?>
<!DOCTYPE svg PUBLIC "-//W3C//DTD SVG 1.1//EN"
 "http://www.w3.org/Graphics/SVG/1.1/DTD/svg11.dtd">
<!-- Generated by graphviz version 5.0.0 (20220707.1540)
 -->
<!-- Title: dependencies Pages: 1 -->
<svg width="1937pt" height="318pt"
 viewBox="0.00 0.00 1937.00 317.80" xmlns="http://www.w3.org/2000/svg" xmlns:xlink="http://www.w3.org/1999/xlink">
<g id="graph0" class="graph" transform="scale(1 1) rotate(0) translate(4 313.8)">
<title>dependencies</title>
<polygon fill="white" stroke="transparent" points="-4,4 -4,-313.8 1933,-313.8 1933,4 -4,4"/>
<text text-anchor="middle" x="964.5" y="-8.2" font-family="sans-serif" font-size="14.00">dependencies</text>
<g id="clust1" class="cluster">
<title>cluster_GTFormModule</title>
<polygon fill="none" stroke="black" stroke-dasharray="1,5" points="8,-100.8 8,-301.8 1291,-301.8 1291,-100.8 8,-100.8"/>
</g>
<g id="clust2" class="cluster">
<title>cluster_GTFormModule_declarations</title>
<polygon fill="none" stroke="black" points="188,-108.8 188,-160.8 1283,-160.8 1283,-108.8 188,-108.8"/>
</g>
<g id="clust10" class="cluster">
<title>cluster_GTFormModule_exports</title>
<polygon fill="none" stroke="black" points="170,-241.8 170,-293.8 1283,-293.8 1283,-241.8 170,-241.8"/>
</g>
<g id="clust12" class="cluster">
<title>cluster_GTFormModule_providers</title>
<polygon fill="none" stroke="black" points="16,-108.8 16,-160.8 180,-160.8 180,-108.8 16,-108.8"/>
</g>
<g id="clust13" class="cluster">
<title>cluster_GTSharedModule</title>
<polygon fill="none" stroke="black" stroke-dasharray="1,5" points="1433,-32.8 1433,-233.8 1921,-233.8 1921,-32.8 1433,-32.8"/>
</g>
<g id="clust14" class="cluster">
<title>cluster_GTSharedModule_declarations</title>
<polygon fill="none" stroke="black" points="1599,-40.8 1599,-92.8 1913,-92.8 1913,-40.8 1599,-40.8"/>
</g>
<g id="clust18" class="cluster">
<title>cluster_GTSharedModule_exports</title>
<polygon fill="none" stroke="black" points="1526,-173.8 1526,-225.8 1648,-225.8 1648,-173.8 1526,-173.8"/>
</g>
<g id="clust20" class="cluster">
<title>cluster_GTSharedModule_providers</title>
<polygon fill="none" stroke="black" points="1441,-40.8 1441,-92.8 1591,-92.8 1591,-40.8 1441,-40.8"/>
</g>
<g id="clust21" class="cluster">
<title>cluster_GTTableModule</title>
<polygon fill="none" stroke="black" stroke-dasharray="1,5" points="1299,-173.8 1299,-225.8 1425,-225.8 1425,-173.8 1299,-173.8"/>
</g>
<!-- GTBotoneraComponent -->
<g id="node1" class="node">
<title>GTBotoneraComponent</title>
<polygon fill="#ffffb3" stroke="black" points="864.81,-152.8 713.19,-152.8 713.19,-116.8 864.81,-116.8 864.81,-152.8"/>
<text text-anchor="middle" x="789" y="-130.6" font-family="Times,serif" font-size="14.00">GTBotoneraComponent</text>
</g>
<!-- GTFormModule -->
<g id="node7" class="node">
<title>GTFormModule</title>
<polygon fill="#8dd3c7" stroke="black" points="683.05,-217.8 680.05,-221.8 659.05,-221.8 656.05,-217.8 574.95,-217.8 574.95,-181.8 683.05,-181.8 683.05,-217.8"/>
<text text-anchor="middle" x="629" y="-195.6" font-family="Times,serif" font-size="14.00">GTFormModule</text>
</g>
<!-- GTBotoneraComponent&#45;&gt;GTFormModule -->
<g id="edge1" class="edge">
<title>GTBotoneraComponent&#45;&gt;GTFormModule</title>
<path fill="none" stroke="black" d="M749.86,-152.84C749.86,-169.53 749.86,-191.8 749.86,-191.8 749.86,-191.8 693.07,-191.8 693.07,-191.8"/>
<polygon fill="black" stroke="black" points="693.07,-188.3 683.07,-191.8 693.07,-195.3 693.07,-188.3"/>
</g>
<!-- GTTableModule -->
<g id="node20" class="node">
<title>GTTableModule</title>
<polygon fill="#8dd3c7" stroke="black" points="1417.08,-217.8 1414.08,-221.8 1393.08,-221.8 1390.08,-217.8 1306.92,-217.8 1306.92,-181.8 1417.08,-181.8 1417.08,-217.8"/>
<text text-anchor="middle" x="1362" y="-195.6" font-family="Times,serif" font-size="14.00">GTTableModule</text>
</g>
<!-- GTBotoneraComponent&#45;&gt;GTTableModule -->
<g id="edge18" class="edge">
<title>GTBotoneraComponent&#45;&gt;GTTableModule</title>
<path fill="none" stroke="black" d="M822.89,-153.08C822.89,-168.75 822.89,-188.8 822.89,-188.8 822.89,-188.8 1296.84,-188.8 1296.84,-188.8"/>
<polygon fill="black" stroke="black" points="1296.84,-192.3 1306.84,-188.8 1296.84,-185.3 1296.84,-192.3"/>
</g>
<!-- GTChipsComponent -->
<g id="node2" class="node">
<title>GTChipsComponent</title>
<polygon fill="#ffffb3" stroke="black" points="695.17,-152.8 562.83,-152.8 562.83,-116.8 695.17,-116.8 695.17,-152.8"/>
<text text-anchor="middle" x="629" y="-130.6" font-family="Times,serif" font-size="14.00">GTChipsComponent</text>
</g>
<!-- GTChipsComponent&#45;&gt;GTFormModule -->
<g id="edge2" class="edge">
<title>GTChipsComponent&#45;&gt;GTFormModule</title>
<path fill="none" stroke="black" d="M629,-152.91C629,-152.91 629,-171.79 629,-171.79"/>
<polygon fill="black" stroke="black" points="625.5,-171.79 629,-181.79 632.5,-171.79 625.5,-171.79"/>
</g>
<!-- GTChipsComponent&#45;&gt;GTTableModule -->
<g id="edge19" class="edge">
<title>GTChipsComponent&#45;&gt;GTTableModule</title>
<path fill="none" stroke="black" d="M691.21,-152.86C691.21,-157.29 691.21,-160.8 691.21,-160.8 691.21,-160.8 1362,-160.8 1362,-160.8 1362,-160.8 1362,-171.67 1362,-171.67"/>
<polygon fill="black" stroke="black" points="1358.5,-171.67 1362,-181.67 1365.5,-171.67 1358.5,-171.67"/>
</g>
<!-- GTConversionDirective -->
<g id="node3" class="node">
<title>GTConversionDirective</title>
<polygon fill="#ffffb3" stroke="black" points="544.8,-152.8 393.2,-152.8 393.2,-116.8 544.8,-116.8 544.8,-152.8"/>
<text text-anchor="middle" x="469" y="-130.6" font-family="Times,serif" font-size="14.00">GTConversionDirective</text>
</g>
<!-- GTConversionDirective&#45;&gt;GTFormModule -->
<g id="edge3" class="edge">
<title>GTConversionDirective&#45;&gt;GTFormModule</title>
<path fill="none" stroke="black" d="M540.9,-153.04C540.9,-168.37 540.9,-187.8 540.9,-187.8 540.9,-187.8 564.71,-187.8 564.71,-187.8"/>
<polygon fill="black" stroke="black" points="564.71,-191.3 574.71,-187.8 564.71,-184.3 564.71,-191.3"/>
</g>
<!-- GTConversionDirective&#45;&gt;GTTableModule -->
<g id="edge20" class="edge">
<title>GTConversionDirective&#45;&gt;GTTableModule</title>
<path fill="none" stroke="black" d="M537.15,-152.84C537.15,-160.55 537.15,-167.8 537.15,-167.8 537.15,-167.8 1343.65,-167.8 1343.65,-167.8 1343.65,-167.8 1343.65,-171.56 1343.65,-171.56"/>
<polygon fill="black" stroke="black" points="1340.15,-171.56 1343.65,-181.56 1347.15,-171.56 1340.15,-171.56"/>
</g>
<!-- GTGenericEditorComponent -->
<g id="node4" class="node">
<title>GTGenericEditorComponent</title>
<polygon fill="#ffffb3" stroke="black" points="375.79,-152.8 196.21,-152.8 196.21,-116.8 375.79,-116.8 375.79,-152.8"/>
<text text-anchor="middle" x="286" y="-130.6" font-family="Times,serif" font-size="14.00">GTGenericEditorComponent</text>
</g>
<!-- GTGenericEditorComponent&#45;&gt;GTFormModule -->
<g id="edge4" class="edge">
<title>GTGenericEditorComponent&#45;&gt;GTFormModule</title>
<path fill="none" stroke="black" d="M370.56,-152.82C370.56,-170.17 370.56,-193.8 370.56,-193.8 370.56,-193.8 564.82,-193.8 564.82,-193.8"/>
<polygon fill="black" stroke="black" points="564.82,-197.3 574.82,-193.8 564.82,-190.3 564.82,-197.3"/>
</g>
<!-- GTGenericEditorComponent&#45;&gt;GTTableModule -->
<g id="edge21" class="edge">
<title>GTGenericEditorComponent&#45;&gt;GTTableModule</title>
<path fill="none" stroke="black" d="M365.48,-152.93C365.48,-163.51 365.48,-174.8 365.48,-174.8 365.48,-174.8 1325.31,-174.8 1325.31,-174.8 1325.31,-174.8 1325.31,-175.48 1325.31,-175.48"/>
<polygon fill="black" stroke="black" points="1321.81,-171.63 1325.31,-181.63 1328.81,-171.63 1321.81,-171.63"/>
</g>
<!-- GTMatErrorMessagesDirective -->
<g id="node5" class="node">
<title>GTMatErrorMessagesDirective</title>
<polygon fill="#ffffb3" stroke="black" points="1274.77,-152.8 1081.23,-152.8 1081.23,-116.8 1274.77,-116.8 1274.77,-152.8"/>
<text text-anchor="middle" x="1178" y="-130.6" font-family="Times,serif" font-size="14.00">GTMatErrorMessagesDirective</text>
</g>
<!-- GTMatErrorMessagesDirective&#45;&gt;GTFormModule -->
<g id="edge5" class="edge">
<title>GTMatErrorMessagesDirective&#45;&gt;GTFormModule</title>
<path fill="none" stroke="black" d="M1145.79,-152.97C1145.79,-171.89 1145.79,-198.8 1145.79,-198.8 1145.79,-198.8 693.33,-198.8 693.33,-198.8"/>
<polygon fill="black" stroke="black" points="693.33,-195.3 683.33,-198.8 693.33,-202.3 693.33,-195.3"/>
</g>
<!-- GTMatErrorMessagesDirective&#45;&gt;GTTableModule -->
<g id="edge22" class="edge">
<title>GTMatErrorMessagesDirective&#45;&gt;GTTableModule</title>
<path fill="none" stroke="black" d="M1274.73,-140.8C1326.75,-140.8 1380.35,-140.8 1380.35,-140.8 1380.35,-140.8 1380.35,-171.78 1380.35,-171.78"/>
<polygon fill="black" stroke="black" points="1376.85,-171.78 1380.35,-181.78 1383.85,-171.78 1376.85,-171.78"/>
</g>
<!-- GTSelectMaestroComponent -->
<g id="node6" class="node">
<title>GTSelectMaestroComponent</title>
<polygon fill="#ffffb3" stroke="black" points="1063.08,-152.8 882.92,-152.8 882.92,-116.8 1063.08,-116.8 1063.08,-152.8"/>
<text text-anchor="middle" x="973" y="-130.6" font-family="Times,serif" font-size="14.00">GTSelectMaestroComponent</text>
</g>
<!-- GTSelectMaestroComponent&#45;&gt;GTFormModule -->
<g id="edge6" class="edge">
<title>GTSelectMaestroComponent&#45;&gt;GTFormModule</title>
<path fill="none" stroke="black" d="M918.53,-153.1C918.53,-171.07 918.53,-195.8 918.53,-195.8 918.53,-195.8 693.12,-195.8 693.12,-195.8"/>
<polygon fill="black" stroke="black" points="693.12,-192.3 683.12,-195.8 693.12,-199.3 693.12,-192.3"/>
</g>
<!-- GTSelectMaestroComponent&#45;&gt;GTTableModule -->
<g id="edge23" class="edge">
<title>GTSelectMaestroComponent&#45;&gt;GTTableModule</title>
<path fill="none" stroke="black" d="M1025.22,-152.92C1025.22,-167.58 1025.22,-185.8 1025.22,-185.8 1025.22,-185.8 1296.77,-185.8 1296.77,-185.8"/>
<polygon fill="black" stroke="black" points="1296.77,-189.3 1306.77,-185.8 1296.77,-182.3 1296.77,-189.3"/>
</g>
<!-- GTBotoneraComponent  -->
<g id="node8" class="node">
<title>GTBotoneraComponent </title>
<polygon fill="#fb8072" stroke="black" points="859.31,-285.8 704.69,-285.8 704.69,-249.8 859.31,-249.8 859.31,-285.8"/>
<text text-anchor="middle" x="782" y="-263.6" font-family="Times,serif" font-size="14.00">GTBotoneraComponent </text>
</g>
<!-- GTFormModule&#45;&gt;GTBotoneraComponent  -->
<g id="edge7" class="edge">
<title>GTFormModule&#45;&gt;GTBotoneraComponent </title>
<path fill="none" stroke="black" stroke-dasharray="5,2" d="M683.23,-214.8C697.49,-214.8 708.97,-214.8 708.97,-214.8 708.97,-214.8 708.97,-239.56 708.97,-239.56"/>
<polygon fill="black" stroke="black" points="705.47,-239.56 708.97,-249.56 712.47,-239.56 705.47,-239.56"/>
</g>
<!-- GTChipsComponent  -->
<g id="node9" class="node">
<title>GTChipsComponent </title>
<polygon fill="#fb8072" stroke="black" points="687.17,-285.8 550.83,-285.8 550.83,-249.8 687.17,-249.8 687.17,-285.8"/>
<text text-anchor="middle" x="619" y="-263.6" font-family="Times,serif" font-size="14.00">GTChipsComponent </text>
</g>
<!-- GTFormModule&#45;&gt;GTChipsComponent  -->
<g id="edge8" class="edge">
<title>GTFormModule&#45;&gt;GTChipsComponent </title>
<path fill="none" stroke="black" stroke-dasharray="5,2" d="M610.91,-218.02C610.91,-218.02 610.91,-239.53 610.91,-239.53"/>
<polygon fill="black" stroke="black" points="607.41,-239.53 610.91,-249.53 614.41,-239.53 607.41,-239.53"/>
</g>
<!-- GTConversionDirective  -->
<g id="node10" class="node">
<title>GTConversionDirective </title>
<polygon fill="#fb8072" stroke="black" points="533.3,-285.8 378.7,-285.8 378.7,-249.8 533.3,-249.8 533.3,-285.8"/>
<text text-anchor="middle" x="456" y="-263.6" font-family="Times,serif" font-size="14.00">GTConversionDirective </text>
</g>
<!-- GTFormModule&#45;&gt;GTConversionDirective  -->
<g id="edge9" class="edge">
<title>GTFormModule&#45;&gt;GTConversionDirective </title>
<path fill="none" stroke="black" stroke-dasharray="5,2" d="M574.85,-211.8C519.01,-211.8 440.03,-211.8 440.03,-211.8 440.03,-211.8 440.03,-239.77 440.03,-239.77"/>
<polygon fill="black" stroke="black" points="436.53,-239.77 440.03,-249.77 443.53,-239.77 436.53,-239.77"/>
</g>
<!-- GTGenericEditorComponent  -->
<g id="node11" class="node">
<title>GTGenericEditorComponent </title>
<polygon fill="#fb8072" stroke="black" points="360.29,-285.8 177.71,-285.8 177.71,-249.8 360.29,-249.8 360.29,-285.8"/>
<text text-anchor="middle" x="269" y="-263.6" font-family="Times,serif" font-size="14.00">GTGenericEditorComponent </text>
</g>
<!-- GTFormModule&#45;&gt;GTGenericEditorComponent  -->
<g id="edge10" class="edge">
<title>GTFormModule&#45;&gt;GTGenericEditorComponent </title>
<path fill="none" stroke="black" stroke-dasharray="5,2" d="M574.85,-205.8C470.34,-205.8 251.03,-205.8 251.03,-205.8 251.03,-205.8 251.03,-239.53 251.03,-239.53"/>
<polygon fill="black" stroke="black" points="247.54,-239.53 251.03,-249.53 254.54,-239.53 247.54,-239.53"/>
</g>
<!-- GTMatErrorMessagesDirective  -->
<g id="node12" class="node">
<title>GTMatErrorMessagesDirective </title>
<polygon fill="#fb8072" stroke="black" points="1275.27,-285.8 1078.73,-285.8 1078.73,-249.8 1275.27,-249.8 1275.27,-285.8"/>
<text text-anchor="middle" x="1177" y="-263.6" font-family="Times,serif" font-size="14.00">GTMatErrorMessagesDirective </text>
</g>
<!-- GTFormModule&#45;&gt;GTMatErrorMessagesDirective  -->
<g id="edge11" class="edge">
<title>GTFormModule&#45;&gt;GTMatErrorMessagesDirective </title>
<path fill="none" stroke="black" stroke-dasharray="5,2" d="M683.16,-204.8C827.44,-204.8 1210.21,-204.8 1210.21,-204.8 1210.21,-204.8 1210.21,-239.58 1210.21,-239.58"/>
<polygon fill="black" stroke="black" points="1206.71,-239.58 1210.21,-249.58 1213.71,-239.58 1206.71,-239.58"/>
</g>
<!-- GTSelectMaestroComponent  -->
<g id="node13" class="node">
<title>GTSelectMaestroComponent </title>
<polygon fill="#fb8072" stroke="black" points="1060.58,-285.8 877.42,-285.8 877.42,-249.8 1060.58,-249.8 1060.58,-285.8"/>
<text text-anchor="middle" x="969" y="-263.6" font-family="Times,serif" font-size="14.00">GTSelectMaestroComponent </text>
</g>
<!-- GTFormModule&#45;&gt;GTSelectMaestroComponent  -->
<g id="edge12" class="edge">
<title>GTFormModule&#45;&gt;GTSelectMaestroComponent </title>
<path fill="none" stroke="black" stroke-dasharray="5,2" d="M683.41,-211.8C775.96,-211.8 954.09,-211.8 954.09,-211.8 954.09,-211.8 954.09,-239.77 954.09,-239.77"/>
<polygon fill="black" stroke="black" points="950.59,-239.77 954.09,-249.77 957.59,-239.77 950.59,-239.77"/>
</g>
<!-- GTFormService -->
<g id="node14" class="node">
<title>GTFormService</title>
<ellipse fill="#fdb462" stroke="black" cx="98" cy="-134.8" rx="73.59" ry="18"/>
<text text-anchor="middle" x="98" y="-130.6" font-family="Times,serif" font-size="14.00">GTFormService</text>
</g>
<!-- GTFormService&#45;&gt;GTFormModule -->
<g id="edge13" class="edge">
<title>GTFormService&#45;&gt;GTFormModule</title>
<path fill="none" stroke="black" d="M98,-152.91C98,-172.14 98,-199.8 98,-199.8 98,-199.8 564.67,-199.8 564.67,-199.8"/>
<polygon fill="black" stroke="black" points="564.67,-203.3 574.67,-199.8 564.67,-196.3 564.67,-203.3"/>
</g>
<!-- GTConfirmacionComponent -->
<g id="node15" class="node">
<title>GTConfirmacionComponent</title>
<polygon fill="#ffffb3" stroke="black" points="1904.75,-84.8 1727.25,-84.8 1727.25,-48.8 1904.75,-48.8 1904.75,-84.8"/>
<text text-anchor="middle" x="1816" y="-62.6" font-family="Times,serif" font-size="14.00">GTConfirmacionComponent</text>
</g>
<!-- GTSharedModule -->
<g id="node17" class="node">
<title>GTSharedModule</title>
<polygon fill="#8dd3c7" stroke="black" points="1645.59,-152.8 1642.59,-156.8 1621.59,-156.8 1618.59,-152.8 1528.41,-152.8 1528.41,-116.8 1645.59,-116.8 1645.59,-152.8"/>
<text text-anchor="middle" x="1587" y="-130.6" font-family="Times,serif" font-size="14.00">GTSharedModule</text>
</g>
<!-- GTConfirmacionComponent&#45;&gt;GTSharedModule -->
<g id="edge14" class="edge">
<title>GTConfirmacionComponent&#45;&gt;GTSharedModule</title>
<path fill="none" stroke="black" d="M1816,-85.02C1816,-105.17 1816,-134.8 1816,-134.8 1816,-134.8 1655.68,-134.8 1655.68,-134.8"/>
<polygon fill="black" stroke="black" points="1655.68,-131.3 1645.68,-134.8 1655.68,-138.3 1655.68,-131.3"/>
</g>
<!-- TextoSlicePipe -->
<g id="node16" class="node">
<title>TextoSlicePipe</title>
<polygon fill="#ffffb3" stroke="black" points="1708.54,-84.8 1607.46,-84.8 1607.46,-48.8 1708.54,-48.8 1708.54,-84.8"/>
<text text-anchor="middle" x="1658" y="-62.6" font-family="Times,serif" font-size="14.00">TextoSlicePipe</text>
</g>
<!-- TextoSlicePipe&#45;&gt;GTSharedModule -->
<g id="edge15" class="edge">
<title>TextoSlicePipe&#45;&gt;GTSharedModule</title>
<path fill="none" stroke="black" d="M1626.39,-85.02C1626.39,-85.02 1626.39,-106.53 1626.39,-106.53"/>
<polygon fill="black" stroke="black" points="1622.89,-106.53 1626.39,-116.53 1629.89,-106.53 1622.89,-106.53"/>
</g>
<!-- TextoSlicePipe  -->
<g id="node18" class="node">
<title>TextoSlicePipe </title>
<polygon fill="#fb8072" stroke="black" points="1639.54,-217.8 1534.46,-217.8 1534.46,-181.8 1639.54,-181.8 1639.54,-217.8"/>
<text text-anchor="middle" x="1587" y="-195.6" font-family="Times,serif" font-size="14.00">TextoSlicePipe </text>
</g>
<!-- GTSharedModule&#45;&gt;TextoSlicePipe  -->
<g id="edge16" class="edge">
<title>GTSharedModule&#45;&gt;TextoSlicePipe </title>
<path fill="none" stroke="black" stroke-dasharray="5,2" d="M1587,-152.91C1587,-152.91 1587,-171.79 1587,-171.79"/>
<polygon fill="black" stroke="black" points="1583.5,-171.79 1587,-181.79 1590.5,-171.79 1583.5,-171.79"/>
</g>
<!-- GTSharedModule&#45;&gt;GTTableModule -->
<g id="edge24" class="edge">
<title>GTSharedModule&#45;&gt;GTTableModule</title>
<path fill="none" stroke="black" d="M1528.45,-128.8C1473.17,-128.8 1398.69,-128.8 1398.69,-128.8 1398.69,-128.8 1398.69,-171.52 1398.69,-171.52"/>
<polygon fill="black" stroke="black" points="1395.19,-171.52 1398.69,-181.52 1402.19,-171.52 1395.19,-171.52"/>
</g>
<!-- SharedService -->
<g id="node19" class="node">
<title>SharedService</title>
<ellipse fill="#fdb462" stroke="black" cx="1516" cy="-66.8" rx="66.62" ry="18"/>
<text text-anchor="middle" x="1516" y="-62.6" font-family="Times,serif" font-size="14.00">SharedService</text>
</g>
<!-- SharedService&#45;&gt;GTSharedModule -->
<g id="edge17" class="edge">
<title>SharedService&#45;&gt;GTSharedModule</title>
<path fill="none" stroke="black" d="M1555.63,-81.55C1555.63,-81.55 1555.63,-106.68 1555.63,-106.68"/>
<polygon fill="black" stroke="black" points="1552.13,-106.68 1555.63,-116.68 1559.13,-106.68 1552.13,-106.68"/>
</g>
<!-- GTTableModule&#45;&gt;GTBotoneraComponent  -->
<g id="edge25" class="edge">
<title>GTTableModule&#45;&gt;GTBotoneraComponent </title>
<path fill="none" stroke="black" stroke-dasharray="5,2" d="M1306.81,-201.8C1162.73,-201.8 786.38,-201.8 786.38,-201.8 786.38,-201.8 786.38,-239.77 786.38,-239.77"/>
<polygon fill="black" stroke="black" points="782.88,-239.77 786.38,-249.77 789.88,-239.77 782.88,-239.77"/>
</g>
<!-- GTTableModule&#45;&gt;GTChipsComponent  -->
<g id="edge26" class="edge">
<title>GTTableModule&#45;&gt;GTChipsComponent </title>
<path fill="none" stroke="black" stroke-dasharray="5,2" d="M1373.01,-217.86C1373.01,-229.24 1373.01,-241.8 1373.01,-241.8 1373.01,-241.8 647.09,-241.8 647.09,-241.8 647.09,-241.8 647.09,-242.59 647.09,-242.59"/>
<polygon fill="black" stroke="black" points="643.59,-239.74 647.09,-249.74 650.59,-239.74 643.59,-239.74"/>
</g>
<!-- GTTableModule&#45;&gt;GTConversionDirective  -->
<g id="edge27" class="edge">
<title>GTTableModule&#45;&gt;GTConversionDirective </title>
<path fill="none" stroke="black" stroke-dasharray="5,2" d="M1350.99,-217.99C1350.99,-226.08 1350.99,-233.8 1350.99,-233.8 1350.99,-233.8 486.72,-233.8 486.72,-233.8 486.72,-233.8 486.72,-239.61 486.72,-239.61"/>
<polygon fill="black" stroke="black" points="483.22,-239.61 486.72,-249.61 490.22,-239.61 483.22,-239.61"/>
</g>
<!-- GTTableModule&#45;&gt;GTGenericEditorComponent  -->
<g id="edge28" class="edge">
<title>GTTableModule&#45;&gt;GTGenericEditorComponent </title>
<path fill="none" stroke="black" stroke-dasharray="5,2" d="M1328.98,-217.86C1328.98,-222.29 1328.98,-225.8 1328.98,-225.8 1328.98,-225.8 305.72,-225.8 305.72,-225.8 305.72,-225.8 305.72,-239.74 305.72,-239.74"/>
<polygon fill="black" stroke="black" points="302.22,-239.74 305.72,-249.74 309.22,-239.74 302.22,-239.74"/>
</g>
<!-- GTTableModule&#45;&gt;GTMatErrorMessagesDirective  -->
<g id="edge29" class="edge">
<title>GTTableModule&#45;&gt;GTMatErrorMessagesDirective </title>
<path fill="none" stroke="black" stroke-dasharray="5,2" d="M1395.02,-218.02C1395.02,-238.17 1395.02,-267.8 1395.02,-267.8 1395.02,-267.8 1285.49,-267.8 1285.49,-267.8"/>
<polygon fill="black" stroke="black" points="1285.49,-264.3 1275.49,-267.8 1285.49,-271.3 1285.49,-264.3"/>
</g>
<!-- GTTableModule&#45;&gt;GTSelectMaestroComponent  -->
<g id="edge30" class="edge">
<title>GTTableModule&#45;&gt;GTSelectMaestroComponent </title>
<path fill="none" stroke="black" stroke-dasharray="5,2" d="M1306.66,-208.8C1202.94,-208.8 989.66,-208.8 989.66,-208.8 989.66,-208.8 989.66,-239.78 989.66,-239.78"/>
<polygon fill="black" stroke="black" points="986.16,-239.78 989.66,-249.78 993.16,-239.78 986.16,-239.78"/>
</g>
</g>
</svg>
